0
SECTION
2
HEADER
9
$INSUNITS
70
4
9
$ACADVER
1
AC1014
9
$HANDSEED
5
FFFF
0
ENDSEC
0
SECTION
2
TABLES
0
TABLE
2
VPORT
5
8
100
AcDbSymbolTable
0
ENDTAB
0
TABLE
2
LTYPE
5
5
100
AcDbSymbolTable
0
LTYPE
5
14
100
AcDbSymbolTableRecord
100
AcDbLinetypeTableRecord
2
BYBLOCK
70
0
0
LTYPE
5
15
100
AcDbSymbolTableRecord
100
AcDbLinetypeTableRecord
2
BYLAYER
70
0
0
ENDTAB
0
TABLE
2
LAYER
5
2
100
AcDbSymbolTable
70
2
0
LAYER
5
50
100
AcDbSymbolTableRecord
100
AcDbLayerTableRecord
2
0
70
0
6
CONTINUOUS
0
ENDTAB
0
TABLE
2
STYLE
5
3
100
AcDbSymbolTable
70
1
0
STYLE
5
11
100
AcDbSymbolTableRecord
100
AcDbTextStyleTableRecord
2
STANDARD
70
0
0
ENDTAB
0
TABLE
2
VIEW
5
6
100
AcDbSymbolTable
70
0
0
ENDTAB
0
TABLE
2
UCS
5
7
100
AcDbSymbolTable
70
0
0
ENDTAB
0
TABLE
2
APPID
5
9
100
AcDbSymbolTable
70
2
0
APPID
5
12
100
AcDbSymbolTableRecord
100
AcDbRegAppTableRecord
2
ACAD
70
0
0
ENDTAB
0
TABLE
2
DIMSTYLE
5
A
100
AcDbSymbolTable
70
1
0
ENDTAB
0
TABLE
2
BLOCK_RECORD
5
1
100
AcDbSymbolTable
70
1
0
BLOCK_RECORD
5
1F
100
AcDbSymbolTableRecord
100
AcDbBlockTableRecord
2
*MODEL_SPACE
0
BLOCK_RECORD
5
1B
100
AcDbSymbolTableRecord
100
AcDbBlockTableRecord
2
*PAPER_SPACE
0
ENDTAB
0
ENDSEC
0
SECTION
2
BLOCKS
0
BLOCK
5
20
100
AcDbEntity
100
AcDbBlockBegin
2
*MODEL_SPACE
0
ENDBLK
5
21
100
AcDbEntity
100
AcDbBlockEnd
0
BLOCK
5
1C
100
AcDbEntity
100
AcDbBlockBegin
2
*PAPER_SPACE
0
ENDBLK
5
1D
100
AcDbEntity
100
AcDbBlockEnd
0
ENDSEC
0
SECTION
2
ENTITIES
0
CIRCLE
5
100
100
AcDbEntity
8
0
100
AcDbCircle
10
-33.735100000001339
20
-0.50200000000024669
30
5.3067269618164886e-17
40
5.2451000000005035
210
0
220
-0
230
1
0
CIRCLE
5
101
100
AcDbEntity
8
0
100
AcDbCircle
10
-19.739700000000838
20
-0.50199999999774536
30
5.3067269618164886e-17
40
5.2451000000020018
210
0
220
0
230
1
0
CIRCLE
5
102
100
AcDbEntity
8
0
100
AcDbCircle
10
-3.7351000000013368
20
-0.50200000000024669
30
5.3067269618164886e-17
40
5.2451000000005035
210
0
220
-0
230
1
0
CIRCLE
5
103
100
AcDbEntity
8
0
100
AcDbCircle
10
10.260299999999161
20
-0.50199999999774536
30
5.3067269618164886e-17
40
5.2451000000020018
210
0
220
0
230
1
0
CIRCLE
5
104
100
AcDbEntity
8
0
100
AcDbCircle
10
3.2498999999996592
20
-7.499699999998251
30
-5.8636833624831125e-20
40
1.6001999999995005
210
-0
220
0
230
1
0
CIRCLE
5
105
100
AcDbEntity
8
0
100
AcDbCircle
10
3.2499000000001566
20
-7.4996999999997493
30
-1.6321669420907398e-17
40
1.1938000000000009
210
0
220
-0
230
1
0
CIRCLE
5
106
100
AcDbEntity
8
0
100
AcDbCircle
10
3.2498999999996592
20
-7.4997000000002512
30
-5.8636833624831125e-20
40
1.6001999999995005
210
-0
220
0
230
1
0
CIRCLE
5
107
100
AcDbEntity
8
0
100
AcDbCircle
10
10.260299999999161
20
-0.50199999999774536
30
-5.8636833624831125e-20
40
5.2451000000020018
210
0
220
-0
230
1
0
CIRCLE
5
108
100
AcDbEntity
8
0
100
AcDbCircle
10
-3.7351000000013368
20
-0.50200000000024669
30
-5.8636833624831125e-20
40
5.2451000000005035
210
0
220
-0
230
1
0
CIRCLE
5
109
100
AcDbEntity
8
0
100
AcDbCircle
10
-26.750100000000341
20
-7.4997000000002494
30
-5.8636833624831125e-20
40
1.6001999999995005
210
-0
220
0
230
1
0
CIRCLE
5
110
100
AcDbEntity
8
0
100
AcDbCircle
10
-19.739700000000838
20
-0.50199999999774536
30
-5.8636833624831125e-20
40
5.2451000000020018
210
0
220
-0
230
1
0
CIRCLE
5
111
100
AcDbEntity
8
0
100
AcDbCircle
10
-26.75009999999984
20
-7.4996999999997493
30
-1.6321669420907398e-17
40
1.1938000000000009
210
0
220
-0
230
1
0
ARC
5
112
100
AcDbEntity
8
0
100
AcDbCircle
10
26.640000000000519
20
9.2977039999999072
30
-1.6321669420907398e-17
40
1.3299999999996481
210
0
220
0
230
1
100
AcDbArc
50
-90.000000000015021
51
0
0
ARC
5
113
100
AcDbEntity
8
0
100
AcDbCircle
10
26.640000000000526
20
9.7977040000006212
30
-1.6321669420907398e-17
40
1.3299999999996404
210
0
220
0
230
1
100
AcDbArc
50
0
51
90.000000000015618
0
LINE
5
114
100
AcDbEntity
8
0
100
AcDbLine
10
20.360000000000163
20
11.127704000000262
30
-1.6321669420907398e-17
11
26.640000000000164
21
11.127704000000262
31
-1.6321669420907398e-17
0
ARC
5
115
100
AcDbEntity
8
0
100
AcDbCircle
10
20.359999999999818
20
9.7977040000006141
30
-1.6321669420907398e-17
40
1.3299999999996459
210
0
220
-0
230
1
100
AcDbArc
50
89.999999999984837
51
180
0
LINE
5
116
100
AcDbEntity
8
0
100
AcDbLine
10
19.030000000000165
20
9.2977040000002589
30
-1.6321669420907398e-17
11
19.030000000000165
21
9.7977040000002606
31
-1.6321669420907398e-17
0
ARC
5
117
100
AcDbEntity
8
0
100
AcDbCircle
10
20.359999999999808
20
9.2977039999999072
30
-1.6321669420907398e-17
40
1.3299999999996448
210
0
220
0
230
1
100
AcDbArc
50
180
51
270.00000000001535
0
LINE
5
118
100
AcDbEntity
8
0
100
AcDbLine
10
23.150000000000162
20
7.9677040000002597
30
-1.6321669420907398e-17
11
20.360000000000163
21
7.9677040000002597
31
-1.6321669420907398e-17
0
LINE
5
119
100
AcDbEntity
8
0
100
AcDbLine
10
26.640000000000164
20
7.9677040000002597
30
-1.6321669420907398e-17
11
23.170000000000165
21
7.9677040000002597
31
-1.6321669420907398e-17
0
LINE
5
120
100
AcDbEntity
8
0
100
AcDbLine
10
27.970000000000166
20
9.7977040000002606
30
-1.6321669420907398e-17
11
27.970000000000166
21
9.2977040000002589
31
-1.6321669420907398e-17
0
CIRCLE
5
121
100
AcDbEntity
8
0
100
AcDbCircle
10
-19.739700000000838
20
-0.50199999999774536
30
5.3067269618164886e-17
40
5.7500000000000009
210
0
220
0
230
1
0
CIRCLE
5
122
100
AcDbEntity
8
0
100
AcDbCircle
10
-33.735100000001339
20
-0.50200000000024669
30
5.3067269618164886e-17
40
5.7500000000000009
210
0
220
0
230
1
0
CIRCLE
5
123
100
AcDbEntity
8
0
100
AcDbCircle
10
-3.7351000000013368
20
-0.50200000000024669
30
-5.8636833624831125e-20
40
5.7500000000000009
210
0
220
0
230
1
0
CIRCLE
5
124
100
AcDbEntity
8
0
100
AcDbCircle
10
10.260299999999161
20
-0.50199999999774536
30
5.3067269618164886e-17
40
5.7500000000000009
210
0
220
0
230
1
0
CIRCLE
5
125
100
AcDbEntity
8
0
100
AcDbCircle
10
-26.750100000000341
20
-7.4997000000002494
30
-5.8636833624831125e-20
40
2.1001999999995009
210
-0
220
0
230
1
0
CIRCLE
5
126
100
AcDbEntity
8
0
100
AcDbCircle
10
3.2498999999996592
20
-7.4997000000002512
30
-5.8636833624831125e-20
40
2.1001999999995
210
-0
220
0
230
1
0
CIRCLE
5
127
100
AcDbEntity
8
0
100
AcDbCircle
10
-47.509999999999778
20
11.261999999999937
30
-1.6321669420907398e-17
40
2.0954999999999893
210
-0
220
0
230
1
0
CIRCLE
5
128
100
AcDbEntity
8
0
100
AcDbCircle
10
-47.509999999999778
20
-11.261999999999951
30
-1.6321669420907398e-17
40
2.0954999999999893
210
-0
220
0
230
1
0
LWPOLYLINE
5
129
100
AcDbEntity
8
0
100
AcDbPolyline
90
8
70
1
43
0.0
10
-51.499999999999758
20
11.314999999999937
42
-0.41421356237309503
10
-47.564999999999777
20
15.249999999999917
10
47.564999999999756
20
15.249999999999915
42
-0.4142135623730937
10
51.499999999999716
20
11.314999999999937
10
51.499999999999716
20
-11.314999999999952
42
-0.41421356237309503
10
47.564999999999742
20
-15.249999999999931
10
-47.564999999999799
20
-15.249999999999929
42
-0.4142135623730937
10
-51.499999999999758
20
-11.314999999999952
0
CIRCLE
5
130
100
AcDbEntity
8
0
100
AcDbCircle
10
47.509999999999749
20
11.261999999999937
30
-1.6321669420907398e-17
40
2.0954999999999893
210
-0
220
0
230
1
0
CIRCLE
5
131
100
AcDbEntity
8
0
100
AcDbCircle
10
47.509999999999749
20
-11.261999999999951
30
-1.6321669420907398e-17
40
2.0954999999999893
210
-0
220
0
230
1
0
LWPOLYLINE
5
132
100
AcDbEntity
8
0
100
AcDbPolyline
90
8
70
1
43
0.0
10
47.564999999999756
20
15.249999999999915
42
-0.4142135623730937
10
51.499999999999716
20
11.314999999999937
10
51.499999999999716
20
-11.314999999999952
42
-0.41421356237309503
10
47.564999999999742
20
-15.249999999999931
10
-47.564999999999799
20
-15.249999999999929
42
-0.4142135623730937
10
-51.499999999999758
20
-11.314999999999952
10
-51.499999999999758
20
11.314999999999937
42
-0.41421356237309503
10
-47.564999999999777
20
15.249999999999917
0
CIRCLE
5
133
100
AcDbEntity
8
0
100
AcDbCircle
10
-47.509999999999778
20
-11.261999999999951
30
-8.5710608459979681e-17
40
2.2500000000000027
210
0
220
0
230
1
0
CIRCLE
5
134
100
AcDbEntity
8
0
100
AcDbCircle
10
-47.509999999999778
20
11.261999999999937
30
-8.5710608459979681e-17
40
2.2500000000000004
210
0
220
0
230
1
0
CIRCLE
5
135
100
AcDbEntity
8
0
100
AcDbCircle
10
47.509999999999749
20
11.261999999999937
30
-1.6321669420907398e-17
40
2.2499999999999991
210
0
220
0
230
1
0
CIRCLE
5
136
100
AcDbEntity
8
0
100
AcDbCircle
10
47.509999999999749
20
-11.261999999999951
30
-1.6321669420907398e-17
40
2.25
210
0
220
0
230
1
0
LWPOLYLINE
5
137
100
AcDbEntity
8
0
100
AcDbPolyline
90
8
70
1
43
0.0
10
20.360000000000163
20
7.4677040000002615
42
-0.4142135623732297
10
18.530000000000165
20
9.2977040000003939
10
18.530000000000172
20
9.7977040000002606
42
-0.4142135623732292
10
20.360000000000301
20
11.627704000000261
10
26.640000000000164
20
11.627704000000261
42
-0.41421356237323154
10
28.470000000000162
20
9.7977040000001274
10
28.470000000000169
20
9.2977040000002589
42
-0.41421356237322887
10
26.640000000000036
20
7.4677040000002588
0
ENDSEC
0
SECTION
2
OBJECTS
0
DICTIONARY
5
C
100
AcDbDictionary
3
ACAD_GROUP
350
D
3
ACAD_MLINESTYLE
350
17
0
DICTIONARY
5
D
100
AcDbDictionary
0
DICTIONARY
5
1A
330
C
100
AcDbDictionary
0
DICTIONARY
5
17
100
AcDbDictionary
0
ENDSEC
0
EOF
